HIERARCHY
ROOT joint_Root
{
	OFFSET 0.0 0.0 0.0
	CHANNELS 6 Xposition Yposition Zposition Zrotation Xrotation Yrotation 
	JOINT Hips
	{
		OFFSET -0.726466 93.3139 -2.00062
		CHANNELS 6 Xposition Yposition Zposition Zrotation Xrotation Yrotation 
		JOINT Spine
		{
			OFFSET 15.7357 0.0 0.0
			CHANNELS 6 Xposition Yposition Zposition Zrotation Xrotation Yrotation 
			JOINT Chest
			{
				OFFSET 8.98455 -0.406207 0.0
				CHANNELS 6 Xposition Yposition Zposition Zrotation Xrotation Yrotation 
				JOINT Neck
				{
					OFFSET 16.3773 0.0 0.0
					CHANNELS 6 Xposition Yposition Zposition Zrotation Xrotation Yrotation 
					JOINT Head
					{
						OFFSET 6.45672 0.0 0.0
						CHANNELS 6 Xposition Yposition Zposition Zrotation Xrotation Yrotation 
						End Site
						{
							OFFSET 0.0 0.0 0.0
						}
					}
				}
				JOINT Shoulder_L
				{
					OFFSET 12.9942 -0.242716 4.98039
					CHANNELS 6 Xposition Yposition Zposition Zrotation Xrotation Yrotation 
					JOINT UpperArm_L
					{
						OFFSET 5.34809 0.0 0.0
						CHANNELS 6 Xposition Yposition Zposition Zrotation Xrotation Yrotation 
						JOINT LowerArm_L
						{
							OFFSET 24.3286 1.87007e-05 0.0
							CHANNELS 6 Xposition Yposition Zposition Zrotation Xrotation Yrotation 
							JOINT Hand_L
							{
								OFFSET 22.2916 0.0 0.0
								CHANNELS 6 Xposition Yposition Zposition Zrotation Xrotation Yrotation 
								End Site
								{
									OFFSET 0.0 0.0 0.0
								}
							}
						}
					}
				}
				JOINT Shoulder_R
				{
					OFFSET 12.9945 -0.242716 -4.98039
					CHANNELS 6 Xposition Yposition Zposition Zrotation Xrotation Yrotation 
					JOINT UpperArm_R
					{
						OFFSET -5.34813 0.0 0.0
						CHANNELS 6 Xposition Yposition Zposition Zrotation Xrotation Yrotation 
						JOINT LowerArm_R
						{
							OFFSET -24.3289 0.000322201 0.0
							CHANNELS 6 Xposition Yposition Zposition Zrotation Xrotation Yrotation 
							JOINT Hand_R
							{
								OFFSET -22.2915 -0.000108084 0.0
								CHANNELS 6 Xposition Yposition Zposition Zrotation Xrotation Yrotation 
								End Site
								{
									OFFSET 0.0 0.0 0.0
								}
							}
						}
					}
				}
			}
		}
		JOINT UpperLeg_L
		{
			OFFSET -2.19248 -6.46944 0.0
			CHANNELS 6 Xposition Yposition Zposition Zrotation Xrotation Yrotation 
			JOINT LowerLeg_L
			{
				OFFSET 39.0811 0.0 -1.23785e-05
				CHANNELS 6 Xposition Yposition Zposition Zrotation Xrotation Yrotation 
				JOINT Foot_L
				{
					OFFSET 40.9854 0.0 -1.26872e-05
					CHANNELS 6 Xposition Yposition Zposition Zrotation Xrotation Yrotation 
					JOINT Toes_L
					{
						OFFSET 11.7543 0.0 0.0
						CHANNELS 6 Xposition Yposition Zposition Zrotation Xrotation Yrotation 
						End Site
						{
							OFFSET 0.0 0.0 0.0
						}
					}
				}
			}
		}
		JOINT UpperLeg_R
		{
			OFFSET -2.19251 6.46944 0.0
			CHANNELS 6 Xposition Yposition Zposition Zrotation Xrotation Yrotation 
			JOINT LowerLeg_R
			{
				OFFSET -39.0811 -0.00228153 -0.0401928
				CHANNELS 6 Xposition Yposition Zposition Zrotation Xrotation Yrotation 
				JOINT Foot_R
				{
					OFFSET -40.9854 0.0 0.0
					CHANNELS 6 Xposition Yposition Zposition Zrotation Xrotation Yrotation 
					JOINT Toes_R
					{
						OFFSET -11.7543 0.0 0.0
						CHANNELS 6 Xposition Yposition Zposition Zrotation Xrotation Yrotation 
						End Site
						{
							OFFSET 0.0 0.0 0.0
						}
					}
				}
			}
		}
	}
}
MOTION
Frames:	8
Frame Time:	0.0333333
0.000000 0.000000 0.000000 0.000000 0.000000 -0.000000 -1.826640 92.327700 -3.112580 88.569800 -0.204340 5.689560 15.735700 0.000005 -0.000001 77.761000 85.465500 -75.897800 8.984550 -0.406207 -0.000000 1.133360 -2.029490 3.743740 16.377300 -0.000001 -0.000001 3.717490 -1.985050 -2.582380 6.456720 -0.000001 -0.000000 6.137170 -2.257240 -3.043970 12.994200 -0.242716 4.980390 -88.214100 -5.441840 -71.799800 5.348090 -0.000007 -0.000001 -82.581500 -31.098400 -84.075900 24.328600 0.000019 0.000005 7.588810 0.640918 -85.200800 22.291600 -0.000001 0.000005 17.663600 5.566730 -9.521810 12.994500 -0.242716 -4.980390 88.371000 5.360960 -73.070700 -5.348130 -0.000001 -0.000004 -64.056100 39.679500 -15.763100 -24.328900 0.000322 -0.000009 1.994840 7.452700 -15.038700 -22.291500 -0.000108 -0.000004 8.249770 5.423800 -3.727480 -2.192480 -6.469440 -0.000000 -175.291000 -5.866630 -2.485370 39.081100 -0.000007 -0.000012 -0.103139 0.242929 23.004400 40.985400 -0.000006 -0.000013 -0.670607 4.395680 -65.028400 11.754300 -0.000000 0.000003 -0.000024 -0.000293 -16.589000 -2.192510 6.469440 -0.000001 -179.963000 12.960100 -179.638000 -39.081100 -0.002282 -0.040193 -0.044872 0.130513 20.266900 -40.985400 0.000008 0.000006 3.424650 5.395910 -65.463700 -11.754300 -0.000006 -0.000006 -0.006278 -0.073341 -19.558200
0.000000 0.000000 0.000000 0.000000 0.000000 -0.000000 -1.837500 92.321300 -3.124380 88.539800 -0.355743 5.758980 15.735700 0.000005 -0.000001 77.939600 85.450100 -76.092300 8.984550 -0.406207 -0.000000 1.168830 -2.006810 3.712460 16.377300 -0.000001 -0.000001 3.796480 -2.005290 -2.567990 6.456720 -0.000001 -0.000000 6.128990 -2.223880 -3.101980 12.994200 -0.242716 4.980390 -88.216400 -5.416100 -71.741400 5.348090 -0.000007 -0.000001 -82.432400 -31.488600 -84.004300 24.328600 0.000019 0.000005 7.408250 0.626699 -85.191600 22.291600 -0.000001 0.000005 17.468900 5.567820 -9.577410 12.994500 -0.242716 -4.980390 88.372600 5.356840 -73.074300 -5.348130 -0.000001 -0.000004 -63.890800 39.618500 -15.959200 -24.328900 0.000322 -0.000009 1.991340 7.398710 -15.117400 -22.291500 -0.000108 -0.000004 8.239510 5.424570 -3.753590 -2.192480 -6.469440 -0.000000 -175.239000 -5.899610 -2.426660 39.081100 -0.000007 -0.000012 -0.102843 0.241560 23.061600 40.985400 -0.000006 -0.000013 -0.692322 4.344940 -65.065700 11.754300 -0.000000 0.000003 -0.000028 -0.000341 -16.590900 -2.192510 6.469440 -0.000001 -179.944000 12.808800 -179.593000 -39.081100 -0.002282 -0.040193 -0.049545 0.143092 20.277000 -40.985400 0.000008 0.000006 3.292420 5.424340 -65.431000 -11.754300 -0.000006 -0.000006 -0.006266 -0.073230 -19.553700
0.000000 0.000000 0.000000 0.000000 0.000000 -0.000000 -1.837670 92.327600 -3.157430 88.522200 -0.463433 5.778750 15.735700 0.000005 -0.000001 78.060900 85.438700 -76.231400 8.984550 -0.406207 -0.000000 1.194540 -1.991240 3.676920 16.377300 -0.000001 -0.000001 3.852360 -1.974470 -2.606260 6.456720 -0.000001 -0.000000 6.095010 -2.218600 -3.089210 12.994200 -0.242716 4.980390 -88.218700 -5.391230 -71.685100 5.348090 -0.000007 -0.000001 -82.371000 -31.896600 -83.925400 24.328600 0.000019 0.000005 7.338260 0.608669 -85.284500 22.291600 -0.000001 0.000005 17.422600 5.567600 -9.566250 12.994500 -0.242716 -4.980390 88.376500 5.352570 -73.099300 -5.348130 -0.000001 -0.000004 -63.733200 39.603200 -16.096900 -24.328900 0.000322 -0.000009 2.019010 7.418720 -15.278600 -22.291500 -0.000108 -0.000004 8.271420 5.423820 -3.727950 -2.192480 -6.469440 -0.000000 -175.211000 -5.993280 -2.406940 39.081100 -0.000007 -0.000012 -0.104433 0.245538 23.041200 40.985400 -0.000006 -0.000013 -0.704499 4.292220 -65.035400 11.754300 -0.000000 0.000003 -0.000025 -0.000306 -16.589500 -2.192510 6.469440 -0.000001 -179.910000 12.655200 -179.572000 -39.081100 -0.002282 -0.040193 -0.050265 0.145536 20.213700 -40.985400 0.000008 0.000006 3.199430 5.399460 -65.358500 -11.754300 -0.000006 -0.000006 -0.006230 -0.072914 -19.540700
0.000000 0.000000 0.000000 0.000000 0.000000 -0.000000 -1.834720 92.336100 -3.190770 88.501500 -0.582454 5.755640 15.735700 0.000005 -0.000001 78.330500 85.443500 -76.522300 8.984550 -0.406207 -0.000000 1.192690 -1.946110 3.634010 16.377300 -0.000001 -0.000001 3.867800 -1.947090 -2.581560 6.456720 -0.000001 -0.000000 6.114360 -2.224560 -3.128600 12.994200 -0.242716 4.980390 -88.213200 -5.393930 -71.641000 5.348090 -0.000007 -0.000001 -82.328000 -32.282000 -83.676200 24.328600 0.000019 0.000005 7.076180 0.552424 -85.559000 22.291600 -0.000001 0.000005 17.423800 5.568500 -9.611640 12.994500 -0.242716 -4.980390 88.368000 5.376520 -73.086700 -5.348130 -0.000001 -0.000004 -63.618100 39.604800 -16.180800 -24.328900 0.000322 -0.000009 2.029310 7.386650 -15.416000 -22.291500 -0.000108 -0.000004 8.241040 5.423790 -3.726990 -2.192480 -6.469440 -0.000000 -175.193000 -6.052380 -2.414350 39.081100 -0.000007 -0.000012 -0.102395 0.241168 23.005200 40.985400 -0.000006 -0.000013 -0.713907 4.243890 -65.007300 11.754300 -0.000000 0.000003 -0.000023 -0.000291 -16.588900 -2.192510 6.469440 -0.000001 -179.903000 12.616900 -179.582000 -39.081100 -0.002282 -0.040193 -0.053629 0.155461 20.119300 -40.985400 0.000008 0.000006 3.030280 5.514990 -65.255200 -11.754300 -0.000006 -0.000006 -0.006310 -0.073629 -19.569900
0.000000 0.000000 0.000000 0.000000 0.000000 -0.000000 -1.829820 92.342500 -3.245660 88.448100 -0.666173 5.694240 15.735700 0.000005 -0.000001 78.576000 85.447700 -76.774400 8.984550 -0.406207 -0.000000 1.191470 -1.905840 3.620430 16.377300 -0.000001 -0.000001 3.829670 -1.921800 -2.549540 6.456720 -0.000001 -0.000000 6.120490 -2.232290 -3.138480 12.994200 -0.242716 4.980390 -88.223000 -5.349730 -71.594800 5.348090 -0.000007 -0.000001 -81.993700 -32.669800 -83.009300 24.328600 0.000019 0.000005 6.783290 0.468915 -86.064200 22.291600 -0.000001 0.000005 17.677500 5.567680 -9.570280 12.994500 -0.242716 -4.980390 88.351500 5.416810 -73.045700 -5.348130 -0.000001 -0.000004 -63.550000 39.594300 -16.219000 -24.328900 0.000322 -0.000009 2.026460 7.334740 -15.498600 -22.291500 -0.000108 -0.000004 8.257840 5.425660 -3.790730 -2.192480 -6.469440 -0.000000 -175.153000 -6.110040 -2.517410 39.081100 -0.000007 -0.000012 -0.102578 0.241324 23.028700 40.985400 -0.000006 -0.000013 -0.712592 4.203000 -64.983700 11.754300 -0.000000 0.000003 -0.000025 -0.000308 -16.589600 -2.192510 6.469440 -0.000001 -179.833000 12.497700 -179.647000 -39.081100 -0.002282 -0.040193 -0.055753 0.162061 20.027800 -40.985400 0.000008 0.000006 2.871240 5.496590 -65.142400 -11.754300 -0.000006 -0.000006 -0.006411 -0.074526 -19.606500
0.000000 0.000000 0.000000 0.000000 0.000000 -0.000000 -1.804990 92.349400 -3.300980 88.457500 -0.756304 5.660320 15.735700 0.000005 -0.000001 78.905400 85.432800 -77.127000 8.984550 -0.406207 -0.000000 1.229690 -1.858320 3.573940 16.377300 -0.000001 -0.000001 3.785900 -1.877940 -2.535790 6.456720 -0.000001 -0.000000 6.077080 -2.214350 -3.145650 12.994200 -0.242716 4.980390 -88.251600 -5.264750 -71.599500 5.348090 -0.000007 -0.000001 -81.092200 -33.169600 -81.552500 24.328600 0.000019 0.000005 6.040690 0.322424 -86.956700 22.291600 -0.000001 0.000005 17.918400 5.569490 -9.662240 12.994500 -0.242716 -4.980390 88.339700 5.465010 -73.071900 -5.348130 -0.000001 -0.000004 -63.523000 39.606500 -16.221700 -24.328900 0.000322 -0.000009 2.016810 7.295600 -15.506600 -22.291500 -0.000108 -0.000004 8.252450 5.424300 -3.744510 -2.192480 -6.469440 -0.000000 -175.191000 -6.117470 -2.566330 39.081100 -0.000007 -0.000012 -0.101604 0.239366 22.999800 40.985400 -0.000006 -0.000013 -0.712874 4.115820 -64.937200 11.754300 -0.000000 0.000003 -0.000023 -0.000281 -16.588600 -2.192510 6.469440 -0.000001 -179.846000 12.398300 -179.713000 -39.081100 -0.002282 -0.040193 -0.058133 0.168884 19.995700 -40.985400 0.000008 0.000006 2.730430 5.511390 -65.060300 -11.754300 -0.000006 -0.000006 -0.006497 -0.075284 -19.637500
0.000000 0.000000 0.000000 0.000000 0.000000 -0.000000 -1.781560 92.353500 -3.366810 88.434100 -0.782939 5.604150 15.735700 0.000005 -0.000001 79.098700 85.402500 -77.329200 8.984550 -0.406207 -0.000000 1.294580 -1.838000 3.557130 16.377300 -0.000001 -0.000001 3.708110 -1.856190 -2.503950 6.456720 -0.000001 -0.000000 5.956230 -2.182050 -3.181820 12.994200 -0.242716 4.980390 -88.315900 -5.076860 -71.620400 5.348090 -0.000007 -0.000001 -79.399300 -33.683000 -79.144500 24.328600 0.000019 0.000005 4.960090 0.150090 -88.272800 22.291600 -0.000001 0.000005 18.048200 5.572790 -9.832160 12.994500 -0.242716 -4.980390 88.322100 5.503410 -73.015500 -5.348130 -0.000001 -0.000004 -63.529100 39.672700 -16.275600 -24.328900 0.000322 -0.000009 2.017720 7.323160 -15.457900 -22.291500 -0.000108 -0.000004 8.298480 5.423920 -3.731670 -2.192480 -6.469440 -0.000000 -175.178000 -6.177180 -2.682400 39.081100 -0.000007 -0.000012 -0.102728 0.241737 23.023400 40.985400 -0.000006 -0.000013 -0.698746 4.138250 -64.898900 11.754300 -0.000000 0.000003 -0.000024 -0.000291 -16.589000 -2.192510 6.469440 -0.000001 -179.805000 12.320400 -179.828000 -39.081100 -0.002282 -0.040193 -0.058949 0.171176 19.990600 -40.985400 0.000008 0.000006 2.693980 5.482240 -64.994500 -11.754300 -0.000006 -0.000006 -0.006163 -0.072304 -19.515900
0.000000 0.000000 0.000000 0.000000 0.000000 -0.000000 -1.750600 92.369800 -3.419400 88.436300 -0.795477 5.586270 15.735700 0.000005 -0.000001 79.488300 85.362800 -77.742000 8.984550 -0.406207 -0.000000 1.383060 -1.788380 3.511270 16.377300 -0.000001 -0.000001 3.627690 -1.854020 -2.443200 6.456720 -0.000001 -0.000000 5.852130 -2.199320 -3.150530 12.994200 -0.242716 4.980390 -88.386500 -4.869610 -71.642800 5.348090 -0.000007 -0.000001 -76.854600 -33.893500 -75.560700 24.328600 0.000019 0.000005 4.103280 0.000622 -89.992700 22.291600 -0.000001 0.000005 18.179800 5.577410 -10.073500 12.994500 -0.242716 -4.980390 88.286400 5.594690 -72.940100 -5.348130 -0.000001 -0.000004 -63.634500 39.656700 -16.159200 -24.328900 0.000322 -0.000009 2.041170 7.406420 -15.462600 -22.291500 -0.000108 -0.000004 8.321700 5.424010 -3.734710 -2.192480 -6.469440 -0.000000 -175.209000 -6.242340 -2.688660 39.081100 -0.000007 -0.000012 -0.099754 0.235728 22.936900 40.985400 -0.000006 -0.000013 -0.656994 4.196050 -64.825700 11.754300 -0.000000 0.000003 -0.000024 -0.000294 -16.589000 -2.192510 6.469440 -0.000001 -179.792000 12.254700 -179.850000 -39.081100 -0.002282 -0.040193 -0.054383 0.159205 19.923300 -40.985400 0.000008 0.000006 2.783070 5.416410 -64.934700 -11.754300 -0.000006 -0.000006 -0.006308 -0.073606 -19.569000
